# xmcd
#
# Track frame offsets: 
#        182
#        26842
#        45735
#        61200
#        76327
#        89617
#        116312
#        142007
#        174607
#        197480
#        210520
#
# Disc length: 3054 seconds
#
# Revision: 0
# Processed by: cddbd v1.5.1PL0 Copyright (c) Steve Scherf et al.
# Submitted via: ExactAudioCopy v0.95a5
#
DISCID=940bec0b
DTITLE=The Genuines - Chasing the Voodoo
DYEAR=1991
DGENRE=Rock
TTITLE0=Ozone Layer
TTITLE1=Love Song
TTITLE2=Me and My Baby
TTITLE3=All About
TTITLE4=Fire of Life
TTITLE5=Hope and Despair
TTITLE6=Woman is ...
TTITLE7=Slow Slow
TTITLE8=21st Century
TTITLE9=I Love a Scandal
TTITLE10=Bridges
EXTD=
EXTT0=
EXTT1=
EXTT2=
EXTT3=
EXTT4=
EXTT5=
EXTT6=
EXTT7=
EXTT8=
EXTT9=
EXTT10=
PLAYORDER=
